gait_65_test.mot
version=1
nRows=12
nColumns=19
inDegrees=yes
endheader
time	ground_force_vx	ground_force_vy	ground_force_vz	ground_force_px	ground_force_py	ground_force_pz	1_ground_force_vx	1_ground_force_vy	1_ground_force_vz	1_ground_force_px	1_ground_force_py	1_ground_force_pz	ground_torque_x	ground_torque_y	ground_torque_z	1_ground_torque_x	1_ground_torque_y	1_ground_torque_z
      1.11600000	      0.00000000	      0.00000000	      0.00000000	      0.00000000	      0.00000000	      0.00000000	     -7.03519584	    132.97453549	     17.83792799	     -0.66727476	      0.00000000	     -0.21114841	      0.00000000	      0.00000000	      0.00000000	      0.00000000	     -0.51948414	      0.00000000
      1.11700000	      0.00000000	      0.00000000	      0.00000000	      0.00000000	      0.00000000	      0.00000000	     -7.86039603	    139.57080973	     18.55317180	     -0.66719543	      0.00000000	     -0.21107282	      0.00000000	      0.00000000	      0.00000000	      0.00000000	     -0.53739395	      0.00000000
      1.11800000	      0.00000000	      0.00000000	      0.00000000	      0.00000000	      0.00000000	      0.00000000	     -8.72076071	    146.23118264	     19.26047438	     -0.66711033	      0.00000000	     -0.21099805	      0.00000000	      0.00000000	      0.00000000	      0.00000000	     -0.55483080	      0.00000000
      1.11900000	      0.00000000	      0.00000000	      0.00000000	      0.00000000	      0.00000000	      0.00000000	     -9.61594796	    152.94590184	     19.95779431	     -0.66701933	      0.00000000	     -0.21092389	      0.00000000	      0.00000000	      0.00000000	      0.00000000	     -0.57173437	      0.00000000
      1.12000000	      0.00000000	      0.00000000	      0.00000000	      0.00000000	      0.00000000	      0.00000000	    -10.54550748	    159.70517126	     20.64307610	     -0.66692231	      0.00000000	     -0.21085015	      0.00000000	      0.00000000	      0.00000000	      0.00000000	     -0.58804483	      0.00000000
      1.12100000	      0.00000000	      0.00000000	      0.00000000	      0.00000000	      0.00000000	      0.00000000	    -11.50887863	    166.49921754	     21.31426024	     -0.66681909	      0.00000000	     -0.21077666	      0.00000000	      0.00000000	      0.00000000	      0.00000000	     -0.60370330	      0.00000000
      1.12200000	      0.00000000	      0.00000000	      0.00000000	      0.00000000	      0.00000000	      0.00000000	    -12.50538933	    173.31835365	     21.96929398	     -0.66670950	      0.00000000	     -0.21070326	      0.00000000	      0.00000000	      0.00000000	      0.00000000	     -0.61865215	      0.00000000
      1.12300000	      0.00000000	      0.00000000	      0.00000000	      0.00000000	      0.00000000	      0.00000000	    -13.53425580	    180.15303796	     22.60614256	     -0.66659335	      0.00000000	     -0.21062979	      0.00000000	      0.00000000	      0.00000000	      0.00000000	     -0.63283547	      0.00000000
      1.12400000	      0.00000000	      0.00000000	      0.00000000	      0.00000000	      0.00000000	      0.00000000	    -14.59458359	    186.99392721	     23.22280088	     -0.66647043	      0.00000000	     -0.21055611	      0.00000000	      0.00000000	      0.00000000	      0.00000000	     -0.64619946	      0.00000000
      1.12500000	      0.00000000	      0.00000000	      0.00000000	      0.00000000	      0.00000000	      0.00000000	    -15.68536991	    193.83192306	     23.81730524	     -0.66634054	      0.00000000	     -0.21048209	      0.00000000	      0.00000000	      0.00000000	      0.00000000	     -0.65869278	      0.00000000
      1.12600000	      0.00000000	      0.00000000	      0.00000000	      0.00000000	      0.00000000	      0.00000000	    -16.80550741	    200.65821223	     24.38774501	     -0.66620345	      0.00000000	     -0.21040758	      0.00000000	      0.00000000	      0.00000000	      0.00000000	     -0.67026699	      0.00000000
      1.12700000	      0.00000000	      0.00000000	      0.00000000	      0.00000000	      0.00000000	      0.00000000	    -17.95378930	    207.46430080	     24.93227385	     -0.66605894	      0.00000000	     -0.21033247	      0.00000000	      0.00000000	      0.00000000	      0.00000000	     -0.68087686	      0.00000000
